<?xml version="1.0" encoding="utf-8"?>
<!-- Generator: Adobe Illustrator 27.7.0, SVG Export Plug-In . SVG Version: 6.00 Build 0)  -->
<svg version="1.1" id="Calque_1" xmlns="http://www.w3.org/2000/svg" xmlns:xlink="http://www.w3.org/1999/xlink" x="0px" y="0px"
	 viewBox="0 0 830 833.1" style="enable-background:new 0 0 830 833.1;" xml:space="preserve">
<style type="text/css">
	.st0{opacity:0.4;}
	.st1{fill:#76B72A;}
</style>
<g class="st0">
	<path class="st1" d="M352.8,616.7c6.4,1.2,13,1.9,18.8,4.9c4,2.8,6.7,7.1,11.4,8.7c6.1,2.2,13.4,1.1,18.8,5.3
		c4.3,4.8,6.1,11.5,11.2,15.6c4,2.6,9,3.3,13.2,6c5.8,3.4,9.3,9.5,12.1,15.3c1.5,2.9,3,5.7,5.4,7.7c6,5.1,13.8,9.4,17.3,16.9
		c1.2,3.1,1.3,6.5,0.5,9.7c-0.3,1.2-1.4,3.4-0.5,4.7c-0.9-1.2,0-3.4,0.3-4.7c0.7-3.1,0.5-6.5-0.8-9.4c-3.8-7.2-11.3-11.1-17.5-16.2
		c-2.7-2.1-4.3-5.1-5.8-8c-2.8-5.7-6.1-11.4-11.7-14.6c-2.7-1.7-5.7-2.6-8.8-3.8c-6.7-1.9-9.8-8.8-13.1-14.3
		c-2.5-6.6-9.9-6.4-16.1-7.8c-3.2-0.6-6.6-1.6-9.1-3.8c-2.6-2.1-4.6-4.7-7.1-6.5C365.6,619.1,359,618.1,352.8,616.7L352.8,616.7z"/>
	<path class="st1" d="M242.9,326.6c0.4,2.8,1.9,5.4,4.1,7c2.3,1.5,5.2,2.6,6.7,5.2c1.4,2.6,1.7,5.5,2.3,8.2
		c0.9,5.4,3.8,10.5,7.6,14.4c2,2,5.1,3.7,5.4,6.8c0.3,2.8-0.3,5.6,0.8,8.1c1.1,2.4,2.7,4.6,5.1,5.9c0.6,0.3,1.4,0.9,1.8,1.6
		c1.1,2,1.4,4.2,1.8,6.4c0.6,2.6,0.1,5.9,0.3,8.3c0.3,1.1,1.2,2.2,2.1,3.1c2,2.1,4.7,2.9,6.7,5.2c1,1.2,1.5,2.6,1.9,4
		c0.7,2.8,0.1,5.8-0.3,8.6c-0.7,5.5,0.5,11.1,1.7,16.6c0.7,2.7,1.4,5.5,2.5,8c-1.3-2.5-2.1-5.2-2.9-7.9c-1.4-5.4-2.9-11.1-2.3-16.8
		c0.9-5.5,0.8-11.4-4.8-14.1c-2.5-1.6-5-3.4-6-6.4c-0.4-1.7,0-3-0.1-4.4c-0.1-3.3-0.5-6.9-2-9.8c-0.7-1.1-2.1-1.5-3.1-2.4
		c-1.7-1.5-2.9-3.3-3.8-5.4c-1.2-2.7-0.6-5.8-0.9-8.5c-0.1-2.6-2.9-3.9-4.9-6c-4-4.1-6.8-9.5-7.6-15.2c-0.5-2.8-0.8-5.6-2-8
		c-1.2-2.5-4-3.6-6.3-5.3C244.5,332.2,243.2,329.4,242.9,326.6L242.9,326.6z"/>
	<path class="st1" d="M470.1,833.1c-0.9,0-1.9-0.1-3.1-0.3c-1-0.1-2.2-0.3-3.6-0.5c-3.2-0.3-5-0.2-6.5-0.1c-1.3,0.1-2.4,0.1-4.2,0
		c-1.8-0.2-3.4-1-5-1.9c-1.9-1-3.6-1.9-4.8-1.1c-3.3,2.2-7,2.6-10,1c-1.1-0.5-2.1-1.4-3.3-2.3c-2.2-1.7-4.4-3.4-6.2-2.7
		c-4,1.5-7.9,1.9-11.9,1.1c-2.2-0.4-3.5-1.8-4.7-2.9c-1.4-1.4-2.6-2.6-5.1-2.4c-4.4,0.3-10.6-0.9-14.8-1.8c-0.8-0.2-1.5-0.3-2.1-0.4
		c-1.5-0.3-3-1.5-4.7-2.9c-2.4-1.9-5.1-4.2-8.5-4.2c-0.2,0-0.4,0-0.5,0c-6.3,0-12.2-1.5-14.6-3.6c-0.9-0.8-1.4-1.8-2.1-2.8
		c-1.1-1.9-2.3-3.9-5.1-4.5c-3.8-0.8-5.9-2.8-8.6-5.4c-0.9-0.8-1.8-1.7-2.8-2.6c-1.6-1.4-3-2.8-4.4-4.1c-2.3-2.3-4.3-4.3-6.4-5.3
		c-4.1-2-8.3-8.6-10.6-13.7c-1.1-2.5-2.4-4.3-3.8-6.2c-1.8-2.4-3.7-5.2-5.7-9.8c-3.5-8.2-9.5-39.3-8-52.5l0.3-2.7
		c1.2-10.6,1.8-15.5,0.6-19c-0.2-0.6-0.6-1.3-1.1-2c-2.2-3.7-5.3-8.8,3.3-24.2c1.9-3.4,3.5-6.3,4.9-8.8c6.2-11.1,8.2-14.9,10.5-17.6
		c2.2-2.7,5.1-3.5,6.5-3.8c-0.3-2.2-1.1-8.4-0.2-13.6c0.7-4.5,1-7.8,1-9.2c-2.8,0-12.6-0.1-19.7,0.4c-3.7,4-7.1,7.3-10.3,9.7
		c-13.6,10.4-56.4,40.7-56.8,41.1c-0.8,0.6-20.2,15.5-23.7,17.7c-2.8,1.8-10.1,10.1-14.1,14.5c-0.9,1-1.6,1.8-2,2.3
		c-2.2,2.5-15.5,16.8-19.9,20.7c-4.3,3.8-15.9,13.4-16,13.5l-0.2,0.1l-0.2,0c-0.2,0-5,0.8-6.9-1.8c-1.1-1.6-0.9-3.9,0.6-6.9l3.8-4.8
		l27.7-23.4l8.5-11.1l24-19.2c1-4.7,2.8-14.6,3.8-23.6c-7.7-3.9-23.5-5.6-27.1-6c-0.2,1.2-0.5,3.7-1.4,5.9c-1.2,3-4.6,5.2-12.6,10.5
		l-0.8,0.5c-8.6,5.7-19.6,5.2-25.4,4.9c-4.7-0.2-7.1,0.6-12.5,2.4c-1.4,0.5-3,1-4.9,1.6c-7,2.2-17.3-2.9-28.3-8.2
		c-3.9-1.9-7.9-3.8-11.8-5.5c-10.7-4.6-16-10.7-21.2-16.7c-2.1-2.5-4.2-4.8-6.5-7c-3.8-3.4-5.8-5.8-7.4-7.7
		c-1.8-2.2-3.3-3.9-6.5-6.3c-6.4-4.8-7.5-13.2-7.9-20.7c-0.3-4.1-2.9-7.2-5.9-10.8c-2.1-2.5-4.3-5.1-6-8.4c-2.9-5.6-2-10.1-1.2-14
		c0.4-1.8,0.7-3.5,0.6-5.1c-0.3-3.5-2.5-8.2-4.6-12.7c-0.8-1.8-1.7-3.6-2.4-5.3c-0.8-1.8-0.8-3.1-0.1-3.8c1.4-1.5,4.6-0.4,7.8,0.7
		c0.8,0.3,1.5,0.5,2.2,0.7c2.2,0.6,4.5,0.6,7.2,0.6c2,0,4.3,0,6.8,0.3c2.7,0.3,4.2,0.3,6.4,0.3c2.2,0,4.9-0.1,10,0.2
		c9.1,0.6,18.2,2.2,24.5,4.4c5.6,2,15.7,3.7,22.1,3.1c4.9-0.5,13.5,3.2,19.7,6c2.3,1,4.2,1.8,5.2,2.1c0.7,0.2,1.3,0.4,2,0.6
		c3,1,6.2,2,10.1,1.1c4.6-1,10.5,2.7,15.7,6c0.9,0.6,1.7,1.1,2.5,1.6c3.2,2,5.6,5.4,8.4,9.4c2.2,3.1,4.6,6.6,7.9,10
		c7.3,7.6,9.8,19.6,12.5,32.2l0.4,1.9c2.2,10.5-1,17.3-2.6,19.8l7.7,1c6,0.7,13.5,3.2,18,4.8c0.2-3.7,0.2-6.5-0.2-8.3
		c-1.6-8.3-1.4-9.1-1-11.1c0.1-0.7,0.3-1.4,0.4-2.8l0-0.5c0.5-5,1.8-18.2-2.8-21.9c-1.6-1.3-5.5-3-10-5c-9-4-21.2-9.4-25.8-16.3
		c-7.5-11.5-12.9-20.7-18.4-31.7c-4.5-9-7.5-11.8-10.8-14.8c-1.1-1-2.3-2.1-3.5-3.5c-4.7-5.1-5.2-7.2-7.2-14.3l-0.3-1
		c-2.2-8-5-12.7-10.2-16.9c-6.7-5.4-9.8-11.8-9.3-19.5c0.2-4.1-1.8-8.4-4-12.8c-2.1-4.3-4.3-8.8-4.4-13.4c-0.1-3.3,0-6.2,0-8.7
		c0.1-4.6,0.2-8.2-0.7-12.4c-0.3-1.2-0.6-2.5-0.9-3.7c-1.5-5.5-3.1-11.8-1.2-21.2c2-9.9,6.5-27.6,14.7-34.7c2.5-2.1,4.9-3.8,7.3-5.5
		c4.6-3.2,8.6-6,10.6-10.7c1.5-3.7,3.7-5.8,5.8-7.7c2.2-2,4.2-3.9,5.7-7.7c1.1-2.7,2-7.7,2.9-12.9c1.8-9.9,3.1-16.5,5.7-17.8
		c0.6-0.3,1.3-0.3,2,0c2,1,4.7,1.3,7.4,1.6c3.9,0.5,7.5,0.9,9.3,3.3c2.7,3.5,10.5,7,13.1,7l0.2,0c3-0.1,8.5-0.4,13.1,4.3
		c2,2.1,4.5,3.2,7.1,4.3c2.9,1.3,5.9,2.6,8.2,5.3c3.7,4.6,7.7,7.7,11.9,9.3c2.4-8.2,3.8-12.9,4.5-14.2c0.8-1.6,1.6-3.1,2.5-4.6
		c2-3.6,4-7.1,3.8-9.7c-0.3-3.7,0.3-20.2,4.8-26.1c4-5.3,6.1-8.7,8.2-14.7c1.9-5.5,9.4-17.2,14.6-15.7c3.1,0.9,7.4-6.9,9.5-12.4
		c0.2-0.5,0.4-1.2,0.6-1.9c0.9-2.9,2.2-6.9,4.8-7.8c1.3-0.4,2.7-0.1,4.2,1c5.5,4,8.8,6.4,13.7,7.8c1.5,0.4,3.5,0.6,5.7,0.8
		c4.6,0.4,9.8,0.8,12.8,4.2c1.4,1.6,2.3,2.9,3.1,4.1c1.5,2.2,2.6,3.8,6.1,5.9c1.7,1,3.5,1.5,5.2,2c3.6,1.1,7.1,2.1,8.3,7.9
		c0.3,1.5,0.6,2.9,0.8,4.2c0.9,5.2,1.3,7.9,6.1,10.3c0.8,0.4,1.6,0.8,2.4,1.2c4.9,2.4,8.1,3.9,8.5,10.7c0.1,1.5,0.1,2.5,0.1,3.3
		c0,1.9,0,1.9,1.1,3.2c0.5,0.7,1.2,1.6,2.3,3.1c0.6,0.8,1.1,1.5,1.6,2.2c3.3,4.6,5.1,7.1,3.7,14.5c-1,5.3-0.6,5.8,0.9,7.9
		c0.8,1.1,1.8,2.5,3.1,4.9c0.8,1.5,1.6,2.9,2.3,4.1c3.1,5.3,5.5,9.5,3.5,15.7c-2.4,7.1-2.7,18.4-0.7,26.3c0.2,1,0.5,2.1,0.9,3.3
		c2.5,9.1,7.1,26,1.2,39.7c-7.1,16.5-10.1,22-13.3,24.3c-2.1,1.6-4.5,3.5-5.9,4.7c4,1.4,15.6,6.1,20,12.3
		c6.4-12.1,10.4-20,11.3-22.3c1.6-4.1,6.8-23.9,8.1-28.6c-0.6-0.1-1.3-0.2-2-0.7c-2-1.2-3.4-3.9-4.1-7.9c-0.4-2.1-0.9-5.1-1.5-8.6
		c-2-11.8-5-29.7-7.2-35.1c-0.3-0.6-0.5-1.3-0.9-2.1c-3.1-7.6-8.4-20.3-5.8-34.2c2.8-15,2.2-21.3-1-31.5
		c-3.3-10.7-3.1-13.1-0.6-22.1c2.2-8,1.5-13.7,0.6-19.8l-0.2-1.7c-0.2-1.5-0.5-3-0.9-4.6c-1.2-5.4-2.4-11,1.7-18.6
		c1-1.8,1.8-3.3,2.5-4.5c3.1-5.3,4-6.9,5.1-18.9c0.9-10.5,3.8-16.2,5.9-20.3c0.9-1.8,1.7-3.3,2.1-4.9c1.5-5.4,3.4-12.2,9.7-18.7
		c6-6.3,8.1-10.4,10.9-18.6c1.8-5.3,3.5-6.8,5.5-8.4c1.2-1,2.4-2,3.8-4c1.2-1.7,2.3-4.5,3.5-7.8c2.6-6.9,5.8-15.5,13-19.5
		c6-3.4,8.9-3.7,11.3-4c1.6-0.2,2.8-0.3,4.6-1.5c1.8-1.2,4.5-5,7.3-9c4.2-6,9-12.7,13.3-14.5c2.5-1,5.3-1.7,8.3-2.5
		c5.3-1.4,10.8-2.8,14.1-5.8c1.6-1.4,3.1-3,4.5-4.5c3.3-3.5,6.5-6.8,11-7.7c6.1-1.2,13.7-4.3,16.8-6.1l1-0.6c3.8-2.1,10-5.7,15.5-6
		c4.7-0.2,11.6-2,19.9-5.3c4.2-1.6,6.3-1.3,8.4-1c1.3,0.2,2.5,0.4,4.4,0.2c2.2-0.2,4.5-0.8,6.9-1.5c3.2-0.9,6.6-1.8,10.1-1.7
		c1.9,0.1,3.4,0.2,4.8,0.4c3,0.3,4.9,0.5,6.7-0.5c2.8-1.6,5.9-1.3,9-1c0.5,0,0.9,0.1,1.4,0.1c3.1,0.2,6.1-2.1,8.6-4.4
		c2.5-2.3,3.9-2.6,6.6-1.4c2.3,1,6.1,1.6,8.9,0.5c3.2-1.2,6.9-3,6.9-3L661,0l-0.3,1.5c-0.4,2.3-1.3,8.6,0.3,10.6
		c1.5,1.9,1.2,3.5,1,4.9c-0.1,0.9-0.3,1.7-0.1,2.8c0.6,3.1,1.4,4.8,2.9,6.2c1.4,1.2,3.5,4.1,2.4,9.6c-0.9,4.3-1.7,8.7,0.8,10.3
		c3.3,2.1,3.4,7.2,3.2,10.8c-0.2,3.1,2.8,11.6,4.4,13.7c2.4,2.9,3.3,6.1,3,9.6c-0.4,3.8,0.3,12.7,2.5,15.3c2.3,2.7,5.9,8.2,4.7,15.2
		c-1,5.5-3.2,18.5-0.7,24.9l0.1,0.3c2.4,6.3,5.8,15,3.3,22.7c-2.4,7.4-2.3,17.1-2.1,19.9c0.3,3.1-2.4,12.5-5.4,19.3
		c-1.2,2.6-3,5.6-4.7,8.6c-2.8,4.7-5.7,9.5-5.9,12.6c-0.1,1.1-0.1,2.4-0.1,3.7c0,5.2,0.1,12.3-5,17.6c-1.4,1.5-2.9,3-4.3,4.5
		c-5,5.1-10.2,10.3-11.7,14.7c-0.5,1.5-1,3.3-1.4,5.1c-1.3,5-2.7,10.7-7,15.5c-2.5,2.7-5,5-7.2,7c-2.9,2.6-5.3,4.8-6.8,7.2
		c-2.8,4.5-10.2,12.6-16.1,15.6l-0.1,0.1c-5,2.6-9.4,4.8-10.8,7.8c6.3,1.5,11.2,3.2,14.4,5l1.3,0.7c9.5,5.3,11.4,6.4,16.7,6.5
		c1.4,0,2.9-0.1,4.6-0.2c5.2-0.4,11.6-0.8,17,3.2c1.6,1.2,2.8,2.2,3.8,3c3.4,2.7,4.6,3.6,9.2,4.1c2.3,0.3,4.2,0.1,6-0.1
		c2.9-0.3,5.5-0.5,8.7,1.4c1.9,1.1,3.4,2.2,4.9,3.2c2.3,1.6,4.4,3.1,8.2,4.8c2.7,1.2,6.1,1.4,9.5,1.5c4.5,0.2,8.7,0.4,11.1,3
		c1.8,2.1,2.9,4.9,3.9,7.7c1.1,3.1,2.2,6,4.2,7.5c1.3,0.9,2.6,1.3,3.8,1.6c2.4,0.7,4.7,1.3,4.8,6.4c0.2,6.7,1.4,11.8,14.9,21.6
		c7.8,5.6,12.7,7.4,15.9,8.6c2.5,0.9,4,1.5,4.8,3.2c1.4,3,1.6,3.1,6,5.6l0.5,0.3c2.1,1.2,3.6,2.6,5,4c2,1.9,3.9,3.7,7.4,4.9v0
		c6.2,2.1,12,4.5,12.1,4.5l2.3,0.9l-2.4,0.6c-0.1,0-8.4,1.9-13.6,5.7c-3.4,2.5-4.8,5.1-6.4,8.1c-0.8,1.6-1.7,3.3-3,5.2
		c-1.9,2.7-3.9,3.3-5.6,3.7c-1.8,0.5-3,0.8-3.7,3.8c-1.6,7.1-6.2,12.1-13.1,17.8c-3.4,2.8-3.2,3.6-3.1,4.2c0.3,1.4-0.1,2.4-4.3,5
		c-3.3,2.1-6.7,3.5-9.7,4.8c-4.5,1.9-8,3.5-8.9,5.9c-1.7,4.8-10.5,11.4-17.8,15.2c-3.4,1.8-4.2,3.1-5,4.6c-0.9,1.6-1.9,3.3-5.7,5.6
		c-3.4,2.1-7.2,2.3-10.6,2.5c-4.1,0.2-7.3,0.4-8.8,3.5c-2.9,5.7-9.9,10.2-19.3,12.3c-4.2,1-5.3,2.4-6.9,4.5
		c-1.2,1.6-2.7,3.5-5.8,5.7c-4,2.9-9.4,2.9-14.1,3c-3.9,0-7.7,0.1-9.8,1.7c-1.5,1.2-2.4,2.5-3.3,3.8c-2,2.9-3.9,5.6-11.7,5.9
		c-3.9,0.2-9.6,0.7-17,1.4c0.8,2.2,1.9,4.8,5.7,8.6c1.7,1.8,3.3,3.3,4.8,4.7c3.5,3.3,6.2,6,8,9.1c2.5,4.4,5.6,8.4,9.6,12.3
		c2,1.9,2.9,4,3.8,5.9c1,2.3,2,4.5,4.8,6.5c5.3,4,7.4,6.1,9.7,9.7c0.8,1.3,3,2.9,5.1,4.3c3.5,2.5,6.9,4.9,6.2,7.4
		c-0.7,2.4-3.4,3.4-6.9,4.7c-2,0.7-4.3,1.6-6.6,2.8c-0.9,0.5-1.7,0.9-2.4,1.3c-4.3,2.3-6.5,3.5-7.3,7.5c-1,4.8-4.5,5.8-7.6,6.6
		c-0.5,0.2-1.1,0.3-1.6,0.5c-3.6,1.2-5.9,4-6.8,6.1c-0.7,1.7-2.7,2.1-4.8,2.6c-1.9,0.4-3.8,0.9-4.9,2.1c-0.8,0.9-1.7,2.1-2.7,3.4
		c-2.2,3-4.4,6-6.6,6.5c-0.5,0.1-1.2,0.3-2,0.4c-4,0.8-12.2,2.6-14.2,5c-0.7,0.8-1.4,1.8-2,2.7c-1.9,2.6-3.6,5-6.4,5.7
		c-0.8,0.2-2,0.4-3.5,0.6c-4.5,0.7-13.7,2-13.8,4.8c-0.1,4.4-3.8,7.3-11,8.6c-1.6,0.3-3.5,0.6-5.4,0.9c-5.3,0.8-11.3,1.7-13.5,3.3
		c-3.5,2.5-11.6,4.6-17.2,5.1c-1.5,0.1-3.3,0.3-5.3,0.5c-5.8,0.6-13.1,1.3-19,1.3c-5.8-0.1-11.1-1.3-13.7-2
		c1.3,2.9,4.2,8.9,6.6,11.5c3.6,3.8,6,10.8,5,15.3c-0.9,4.7-1.8,16.6-0.4,19.9c1.5,3.8,3.5,9.7,3.8,16.4c0.2,3.2-0.8,6.3-1.7,9
		c-1,3.1-1.8,5.7-1.1,8l0.4,1.3c1.5,4.4,3.1,9.3-0.2,13.5c-4,5-5.6,8.7-4.6,10.5c0.2,0.4,0.5,0.8,0.8,1.4c1.9,3,4.7,7.6,1.8,10.1
		C472.8,832.7,471.6,833.1,470.1,833.1z M459.4,830.5c1.1,0,2.4,0.1,4.2,0.2c1.5,0.1,2.6,0.3,3.6,0.5c3.1,0.5,4.1,0.6,6-1
		c1.9-1.6-0.5-5.5-2.1-8.1c-0.3-0.5-0.6-1-0.9-1.4c-1.4-2.5,0.2-6.6,4.7-12.2c2.8-3.5,1.3-7.8-0.1-12l-0.4-1.3
		c-0.9-2.8,0.1-5.7,1.1-8.9c0.9-2.7,1.7-5.5,1.6-8.5c-0.3-6.4-2.1-12.2-3.6-15.9c-1.6-3.9-0.5-16.5,0.3-20.8c0.8-4-1.4-10.6-4.6-14
		c-3.4-3.5-7.4-13.1-7.6-13.5l-0.7-1.6l1.6,0.5c0.1,0,7.2,2.4,14.9,2.4c5.8,0.1,13-0.7,18.8-1.3c2-0.2,3.8-0.4,5.3-0.5
		c6.2-0.5,13.5-2.7,16.4-4.8c2.5-1.8,8.4-2.7,14.2-3.6c1.9-0.3,3.8-0.6,5.4-0.8c6.4-1.2,9.6-3.6,9.7-7.1c0.1-3.7,7.2-5.1,15.1-6.3
		c1.4-0.2,2.6-0.4,3.3-0.6c2.2-0.5,3.8-2.7,5.5-5.1c0.7-0.9,1.4-1.9,2.1-2.8c2.4-2.9,10.7-4.6,15.1-5.5c0.8-0.2,1.5-0.3,2-0.4
		c1.6-0.4,3.8-3.5,5.7-5.9c1-1.3,1.9-2.6,2.8-3.5c1.5-1.6,3.7-2.1,5.7-2.6c1.7-0.4,3.3-0.8,3.7-1.7c1-2.4,3.7-5.7,7.7-7
		c0.5-0.2,1.1-0.3,1.6-0.5c3-0.9,5.7-1.6,6.5-5.5c1-4.7,3.7-6.1,8.1-8.5c0.7-0.4,1.6-0.8,2.4-1.3c2.4-1.3,4.7-2.2,6.8-2.9
		c3.1-1.1,5.5-2,6-3.7c0.4-1.4-2.9-3.8-5.6-5.7c-2.3-1.7-4.6-3.2-5.6-4.8c-2.2-3.5-4.1-5.4-9.3-9.3c-3.1-2.3-4.2-4.8-5.3-7.1
		c-0.9-1.9-1.7-3.7-3.5-5.4c-4.1-4-7.4-8.1-9.9-12.6c-1.6-2.9-4.3-5.5-7.7-8.7c-1.5-1.4-3.1-3-4.8-4.7c-4.6-4.7-5.6-7.7-6.4-10.2
		l-0.3-0.9l1-0.1c7.9-0.8,14-1.3,18.1-1.5c7-0.3,8.6-2.5,10.5-5.3c0.9-1.3,1.9-2.8,3.6-4.1c2.6-2,6.6-2,10.8-2.1
		c4.7,0,9.6-0.1,13.2-2.7c2.9-2.1,4.3-3.8,5.4-5.4c1.7-2.2,3.1-4,7.8-5.1c8.9-2.1,15.6-6.3,18.3-11.5c2-3.9,5.9-4.1,10.1-4.3
		c3.3-0.2,6.8-0.4,9.9-2.3c3.5-2.1,4.3-3.6,5.2-5c0.9-1.6,1.9-3.2,5.7-5.2c7.2-3.7,15.6-10.2,17.1-14.4c1.1-3.1,4.9-4.7,9.8-6.8
		c3-1.3,6.3-2.7,9.5-4.7c3.8-2.4,3.7-2.9,3.6-3.4c-0.2-1.3-0.1-2.6,3.6-5.7c7.9-6.6,11.2-11.1,12.6-17c0.9-3.9,2.9-4.4,4.8-4.9
		c1.5-0.4,3.1-0.8,4.7-3.1c1.2-1.8,2.1-3.4,2.9-5c1.7-3.2,3.1-6,6.9-8.7c3.8-2.7,8.9-4.4,11.8-5.3c-2.2-0.9-6-2.3-9.8-3.6l0,0
		c-3.8-1.3-5.9-3.3-8-5.2c-1.4-1.3-2.8-2.6-4.7-3.8l-0.5-0.3c-4.4-2.5-5-2.9-6.6-6.3c-0.5-1.1-1.5-1.5-3.9-2.4
		c-3.1-1.1-8.3-3.1-16.3-8.8c-14.1-10.3-15.4-16-15.6-22.9c-0.1-4-1.4-4.3-3.7-4.9c-1.2-0.3-2.8-0.8-4.3-1.8
		c-2.5-1.7-3.6-4.9-4.8-8.2c-0.9-2.6-1.9-5.3-3.6-7.2c-1.9-2.2-5.8-2.3-10-2.5c-3.5-0.1-7.1-0.3-10.1-1.6c-4-1.8-6.3-3.4-8.5-5
		c-1.4-1-2.9-2-4.7-3.1c-2.8-1.6-5-1.4-7.8-1.2c-1.8,0.2-3.8,0.4-6.3,0.1c-5.1-0.6-6.5-1.7-10-4.5c-1-0.8-2.2-1.8-3.8-2.9
		c-4.9-3.7-10.8-3.2-15.9-2.9c-1.7,0.1-3.3,0.2-4.7,0.2c-5.6-0.2-7.9-1.4-17.4-6.7l-1.3-0.7c-3.3-1.8-8.3-3.5-14.9-5l-0.8-0.2
		l0.2-0.8c1.1-4.1,6.1-6.7,11.8-9.6l0.1-0.1c5.6-2.9,12.8-10.7,15.5-15c1.6-2.5,4.1-4.8,7.1-7.5c2.2-2,4.7-4.2,7.1-6.9
		c4.1-4.5,5.4-10,6.6-14.8c0.5-1.8,0.9-3.6,1.4-5.2c1.6-4.7,7-10.1,12.1-15.3c1.5-1.5,3-3,4.3-4.4c4.6-4.9,4.6-11.4,4.5-16.5
		c0-1.4,0-2.7,0.1-3.9c0.3-3.4,3.1-8.2,6.1-13.3c1.7-2.9,3.5-5.9,4.6-8.4c2.9-6.6,5.5-15.8,5.3-18.6c-0.3-3.1-0.4-12.8,2.2-20.5
		c2.4-7.2-0.7-15.2-3.2-21.7l-0.1-0.3c-2.6-6.8-0.4-19.6,0.6-25.7c1.1-6.4-2.2-11.5-4.3-13.9c-2.8-3.3-3.2-13.1-2.9-16.4
		c0.3-3.1-0.6-5.9-2.7-8.5c-1.9-2.4-5-11.3-4.8-14.8c0.1-1.9,0.4-7.6-2.5-9.4c-3.5-2.2-2.4-7.3-1.5-11.8c1-4.8-0.8-7.2-1.9-8.2
		c-1.8-1.6-2.7-3.6-3.4-7.1c-0.3-1.3-0.1-2.4,0.1-3.3c0.2-1.4,0.4-2.3-0.7-3.7c-1.8-2.3-1.2-7.7-0.8-10.4c-1.4,0.6-3.6,1.7-5.7,2.4
		c-3.7,1.4-8.1,0.3-10.1-0.6c-1.9-0.8-2.7-0.9-4.9,1.1c-2.8,2.5-6.1,5.1-9.8,4.8c-0.5,0-0.9-0.1-1.4-0.1c-2.9-0.3-5.7-0.5-8.1,0.8
		c-2.3,1.3-4.5,1-7.7,0.7c-1.3-0.1-2.9-0.3-4.7-0.4c-3.3-0.1-6.5,0.7-9.6,1.6c-2.5,0.7-4.8,1.3-7.2,1.5c-2.1,0.2-3.5-0.1-4.8-0.2
		c-2.1-0.3-3.8-0.6-7.6,0.9c-8.6,3.3-15.5,5.1-20.4,5.4c-5.1,0.2-11.2,3.7-14.8,5.8l-1,0.6c-3.3,1.8-11,5.1-17.3,6.3
		c-4,0.8-7,3.9-10.1,7.2c-1.5,1.5-3,3.1-4.6,4.6c-3.7,3.2-9.3,4.6-14.8,6.1c-3,0.8-5.7,1.5-8.2,2.5c-3.9,1.6-8.5,8.1-12.6,13.9
		c-3.1,4.3-5.7,8.1-7.8,9.4c-2.1,1.4-3.6,1.5-5.3,1.7c-2.2,0.3-4.9,0.6-10.7,3.8c-6.7,3.7-9.8,12-12.3,18.7
		c-1.3,3.3-2.3,6.2-3.7,8.1c-1.6,2.2-2.9,3.3-4.1,4.3c-1.9,1.6-3.3,2.8-5,7.7c-2.8,8.1-4.9,12.5-11.3,19.2c-6,6.3-7.8,12.8-9.3,18
		c-0.5,1.7-1.3,3.3-2.2,5.2c-2.2,4.2-4.8,9.5-5.8,19.7c-1.1,12.3-2.2,14.1-5.3,19.5c-0.7,1.2-1.5,2.7-2.5,4.5
		c-3.8,7.1-2.6,12.4-1.5,17.6c0.3,1.5,0.7,3.1,0.9,4.8l0.2,1.7c0.8,6.3,1.6,12.2-0.7,20.5c-2.5,8.8-2.6,10.9,0.6,21.3
		c3.3,10.5,3.9,17,1.1,32.3c-2.5,13.4,2.6,25.9,5.7,33.3c0.3,0.8,0.6,1.5,0.9,2.1c2.2,5.5,5.3,23.5,7.3,35.4
		c0.6,3.5,1.1,6.5,1.5,8.5c0.8,4.4,2.3,6.1,3.4,6.8c1.1,0.7,2,0.5,2.1,0.5l1.3-0.3l-0.3,1.3c-0.3,1-6.6,25-8.4,29.8
		c-1.2,3.1-7.2,14.6-12,23.7l-0.7,1.3l-0.7-1.3c-3.9-7.5-21-13.1-21.1-13.2l-1.3-0.4l1.1-0.9c0,0,3.8-3.3,7-5.6
		c3.2-2.3,6.6-9.5,12.7-23.7c5.7-13.3,1.2-29.8-1.2-38.7c-0.3-1.3-0.7-2.4-0.9-3.4c-2.1-8.3-1.7-19.7,0.7-27.2
		c1.8-5.5-0.3-9.2-3.3-14.4c-0.8-1.3-1.5-2.7-2.3-4.2c-1.2-2.3-2.2-3.7-3-4.7c-1.9-2.5-2.3-3.4-1.2-9.1c1.3-6.8-0.2-8.8-3.4-13.3
		c-0.5-0.7-1-1.4-1.6-2.2c-1-1.5-1.7-2.4-2.2-3c-1.3-1.7-1.4-1.9-1.4-4.1c0-0.8,0-1.8-0.1-3.2c-0.4-5.9-2.8-7-7.6-9.4
		c-0.8-0.4-1.6-0.8-2.4-1.2c-5.4-2.8-6-6-6.9-11.4c-0.2-1.2-0.4-2.6-0.8-4.1c-1-4.9-3.6-5.7-7.2-6.7c-1.7-0.5-3.7-1.1-5.5-2.2
		c-3.8-2.3-5-4.1-6.6-6.4c-0.8-1.1-1.6-2.4-3-4c-2.5-3-7.4-3.3-11.7-3.7c-2.2-0.2-4.3-0.3-6-0.8c-5.2-1.5-8.6-3.9-14.2-8
		c-1.1-0.8-2-1-2.8-0.8c-1.9,0.6-3.1,4.3-3.8,6.8c-0.2,0.8-0.5,1.5-0.7,2c-1,2.5-6.1,14.8-11.4,13.3c-3.5-1-10.6,8.6-12.7,14.7
		c-2.1,6.2-4.3,9.7-8.4,15.1c-4,5.3-4.8,20.9-4.4,25.1c0.2,3.1-1.8,6.7-4,10.6c-0.8,1.5-1.7,3-2.4,4.6c-0.6,1.3-2.2,6.2-4.6,14.8
		l-0.2,0.8l-0.8-0.3c-4.7-1.6-9.2-5-13.4-10.1c-2-2.5-4.7-3.6-7.6-4.9c-2.7-1.2-5.4-2.3-7.6-4.7c-4.1-4.2-9-4-11.9-3.8l-0.3,0
		c-3.1,0.1-11.4-3.5-14.4-7.6c-1.4-1.9-4.7-2.3-8.3-2.7c-2.7-0.3-5.6-0.6-7.8-1.7c-0.2-0.1-0.4-0.1-0.6,0c-2.1,1.1-3.6,9.7-4.8,16.7
		c-0.9,5.3-1.8,10.3-3,13.2c-1.7,4.1-3.9,6.2-6.1,8.3c-2.1,1.9-4,3.7-5.4,7.2c-2.1,5.1-6.3,8-11.1,11.4c-2.3,1.6-4.7,3.3-7.2,5.4
		c-8.2,7-12.6,25.9-14.2,33.8c-1.8,9-0.3,14.8,1.2,20.5c0.3,1.3,0.7,2.5,0.9,3.8c1,4.3,0.9,8.3,0.8,12.8c-0.1,2.5-0.1,5.3,0,8.6
		c0.1,4.3,2.2,8.6,4.2,12.8c2.2,4.4,4.4,9,4.1,13.6c-0.4,7.1,2.5,13.1,8.8,18.2c5.4,4.3,8.5,9.5,10.7,17.7l0.3,1
		c1.9,7,2.4,8.8,6.8,13.6c1.2,1.3,2.3,2.3,3.4,3.4c3.3,3.1,6.5,6,11.1,15.2c5.5,11,10.8,20.2,18.3,31.6c4.3,6.6,16.3,11.9,25.1,15.8
		c4.8,2.1,8.6,3.8,10.4,5.3c5.2,4.3,3.9,17.6,3.4,23.3l0,0.5c-0.1,1.4-0.3,2.3-0.5,2.9c-0.4,1.7-0.5,2.5,1,10.5
		c0.4,2.1,0.5,5.4,0.1,9.7l-0.1,1l-1-0.4c-4.3-1.5-12.4-4.2-18.7-5l-10.4-1.3l0.9-1.1c0.1-0.1,5.7-7.2,3.1-19.6l-0.4-1.9
		c-2.7-12.4-5.2-24.2-12.1-31.5c-3.3-3.5-5.8-7.1-8-10.2c-2.7-3.8-5-7.1-7.9-8.9c-0.8-0.5-1.7-1-2.6-1.6c-5-3.1-10.6-6.7-14.5-5.8
		c-4.3,1-7.8-0.2-10.9-1.1c-0.7-0.2-1.3-0.4-2-0.6c-1.1-0.3-3-1.1-5.4-2.2c-5.7-2.5-14.4-6.3-19-5.8c-6.6,0.6-17-1.1-22.8-3.1
		c-6.1-2.1-15.1-3.7-24.1-4.3c-5-0.3-7.7-0.3-9.8-0.2c-2.1,0-3.8,0.1-6.6-0.3c-2.4-0.3-4.5-0.3-6.6-0.3c-2.7,0-5.3,0-7.6-0.7
		c-0.7-0.2-1.4-0.4-2.3-0.7c-1.9-0.6-5.5-1.8-6.2-1.1c-0.2,0.2-0.2,0.9,0.3,2.2c0.7,1.7,1.6,3.5,2.4,5.2c2.2,4.6,4.5,9.4,4.7,13.2
		c0.1,1.8-0.3,3.6-0.7,5.5c-0.8,3.7-1.7,7.8,1,12.9c1.6,3.1,3.8,5.7,5.9,8.1c3.1,3.7,6,7.1,6.3,11.8c0.5,7.5,1.4,15.1,7.3,19.5
		c3.4,2.5,4.9,4.3,6.8,6.5c1.7,2,3.6,4.2,7.3,7.5c2.4,2.2,4.5,4.6,6.7,7.1c5,5.8,10.2,11.9,20.6,16.3c4,1.7,8,3.7,11.9,5.5
		c10.7,5.2,20.8,10.1,27.1,8.1c1.9-0.6,3.5-1.1,4.9-1.6c5.4-1.8,8.1-2.7,13-2.5c6.2,0.3,16.4,0.7,24.6-4.6l0.8-0.5
		c7.5-5,10.9-7.2,12-9.8c1.1-2.7,1.4-6.1,1.4-6.2l0.1-0.8l0.8,0.1c0.8,0.1,20.2,1.8,28.9,6.4l0.5,0.2l-0.1,0.5
		c-1,9.4-2.9,19.9-3.9,24.6l-0.1,0.3l-24.3,19.4l-8.4,11.1l-27.6,23.3l-3.6,4.6c-0.8,1.5-1.6,3.8-0.7,5.1c1,1.4,3.9,1.4,5.2,1.2
		c1.4-1.2,11.8-9.8,15.8-13.3c4.4-3.9,17.5-18.1,19.8-20.6c0.5-0.5,1.2-1.3,2-2.3c4-4.5,11.4-12.9,14.4-14.8
		c3.4-2.2,23.4-17.5,23.6-17.7c0.5-0.3,43.3-30.7,56.8-41c3.1-2.4,6.6-5.6,10.3-9.7l0.2-0.2l0.3,0c8.4-0.6,20.8-0.4,20.9-0.4l0.8,0
		l0,0.8c0,0.2,0,4.1-1.1,10.2c-1,6,0.3,13.8,0.3,13.8l0.1,0.8l-0.9,0.1c0,0-3.7,0.3-6.2,3.4c-2.2,2.7-4.3,6.4-10.4,17.4
		c-1.4,2.5-3,5.4-4.9,8.8c-8.1,14.6-5.4,19.3-3.3,22.6c0.5,0.8,0.9,1.5,1.2,2.3c1.3,3.9,0.8,8.5-0.5,19.7l-0.3,2.7
		c-1.5,12.7,4.5,43.9,7.8,51.7c1.9,4.5,3.7,7.1,5.5,9.5c1.4,2,2.7,3.8,4,6.4c2.9,6.3,6.9,11.5,9.9,12.9c2.3,1.1,4.4,3.2,6.8,5.6
		c1.3,1.3,2.7,2.7,4.3,4c1.1,0.9,2,1.8,2.9,2.7c2.6,2.5,4.5,4.3,7.8,5c3.5,0.7,5,3.2,6.2,5.2c0.6,1,1.1,1.9,1.8,2.5
		c2.1,1.9,7.9,3.2,14,3.2c0,0,0.1,0,0.1,0c3.9,0,7,2.5,9.5,4.5c1.5,1.2,2.9,2.3,4,2.6c0.6,0.1,1.3,0.2,2.1,0.4
		c3.8,0.8,10.2,2,14.3,1.7c3.2-0.2,4.8,1.4,6.3,2.8c1.1,1.1,2.2,2.1,3.9,2.5c3.7,0.7,7.3,0.4,11-1c2.6-1,5.3,1.1,7.7,2.9
		c1.1,0.8,2.1,1.6,3,2.1c3.6,1.8,7.1,0,8.5-0.9c1.9-1.3,4.2-0.1,6.4,1.1c1.5,0.8,3,1.6,4.5,1.7c1.6,0.2,2.7,0.1,4,0
		C457.6,830.6,458.4,830.5,459.4,830.5z M226.2,650.5l0.4-1.9c0.6-2.9,1-5.7,1.2-8.3c0.1-1.6,0.4-3.6,0.6-5.6
		c0.9-7.8,2.1-18.4,0.6-23.7c-1.4-5-1.1-7.9-0.9-11c0.1-1.2,0.2-2.5,0.2-4c0-5.2,0.3-14.7,0.3-14.8l0-0.4l4.5-3.3
		c4.2-3.1,9-14,10.1-19.6c1.3-6.5,8.5-12.3,16.1-17.6c8-5.6,9.2-11.2,10.6-17.8l0-0.2c0.8-3.6,4.2-7.8,8.2-12.7
		c3.8-4.6,8.1-9.9,10.8-15.6c3.5-7.3,2.7-11.5,1.8-16c-0.5-2.5-1-5.1-0.7-8.3c0.3-2.8,1.1-6,1.9-9.3c1.2-4.7,2.4-9.6,2.1-13.6
		l-0.1-1.1l1,0.3c19.5,5.2,50.8,6.3,59.4,4.3c9-2.2,11.2-10.5,11.3-10.8l0.2-0.7l0.7,0.2c0.2,0,5.3,1.2,14,5.8
		c3.2,1.7,5.4,3.7,6.7,6l0.2,0.4l-1.5,2.7l-20.8,38.2c-0.3,0.6-33.4,57.2-38.4,66.7c-5.2,9.8-23.2,34.1-25.9,37.4
		c-2.9,3.5-26.4,21.3-27.4,22.1l-23.7,15.9L226.2,650.5z M230.2,581.7c-0.1,1.8-0.3,9.8-0.3,14.3c0,1.5-0.1,2.9-0.2,4.1
		c-0.3,3.1-0.5,5.7,0.8,10.4c1.6,5.5,0.4,15.9-0.5,24.3c-0.2,2.1-0.4,4-0.6,5.6c-0.2,2.1-0.5,4.3-0.9,6.6l20.8-14.2l23.6-15.8
		c0.2-0.2,24.3-18.4,27.1-21.8c2.7-3.2,20.5-27.3,25.7-37.1c5-9.5,38.1-66.1,38.5-66.7l21.9-40.1c-1.2-1.9-3.2-3.6-5.9-5
		c-6.7-3.5-11.3-5-12.9-5.4c-0.8,2.3-3.8,9.2-12.2,11.2c-8.8,2.1-39,1.1-59.1-4c0,4-1.1,8.6-2.2,13c-0.8,3.2-1.6,6.3-1.9,9.1
		c-0.3,2.9,0.2,5.3,0.7,7.8c0.9,4.5,1.8,9.2-1.9,17c-2.9,5.9-7.2,11.2-11,15.9c-3.8,4.7-7.2,8.8-7.9,12l0,0.2
		c-1.5,6.9-2.7,12.8-11.2,18.7c-7.3,5.1-14.3,10.6-15.5,16.6c-1.2,6-6.2,17.2-10.7,20.5L230.2,581.7z M328.2,622.9l-0.4-3.3
		c-0.1-0.4-1.2-9.8,1.8-20.1l0.2-0.6l0.6,0c0.2,0,5.7,0.1,8.9,1.2c3.2,1.1,6.4,3.1,6.6,3.1l0.2,0.1l0.1,0.2c0.1,0.2,2.4,4.5,3.4,6.8
		c1,2.3,1.2,4.2,1.2,4.3l0.2,1.4l-1.3-0.7c-2.5-1.3-9.4-4.5-11.8-4.1l0,0c-3.6,0.6-6.5,1.9-6.9,3.1c-0.5,1.8-1.6,5.2-1.7,5.3
		L328.2,622.9z M330.9,600.5c-1.6,5.7-1.9,11.2-1.9,14.8c0.1-0.5,0.3-0.9,0.4-1.3c0.8-2.8,6.4-3.9,8.1-4.2l0,0
		c2.7-0.4,8.5,2.2,11.3,3.5c-0.2-0.7-0.4-1.5-0.8-2.4c-0.8-1.9-2.8-5.6-3.3-6.5c-0.7-0.4-3.5-2-6.1-2.9
		C336.3,600.8,332.4,600.6,330.9,600.5z M346,601.2l-1.2-0.9c0,0-2.5-1.7-11-3c-6.7-1.1-20.1-0.5-25.5-0.2l-1.8,0.1l1.2-1.4
		c8.6-10.2,16.4-21.8,21.5-29.6c5.6-8.7,23-42.2,23.1-42.6l22.9-37.7c0,0,11.2-20,18.7-33.4l0.2-0.3l0.3-0.1
		c8.6-2.2,19.7,1.1,20.2,1.3l0.7,0.2l-1.1,5.4c-0.3,1.6,0.4,2.4,2.9,5c3.1,3.2,8.4,8.7,15.5,21.2c7,12.4,16.4,21.6,23,27.2l1,0.9
		l-2.7,1c-1.6,0.6-2.9,1-3.6,1.3c-3,1-5.3,1-8.5,1.1c-2,0-4.2,0.1-7.1,0.3c-7.4,0.7-12.3,4.8-12.3,4.8c-0.5,0.4-49,35.2-62.5,49.4
		c-13.4,14-13.7,28.4-13.7,28.6L346,601.2z M322.7,595c4.3,0,8.4,0.2,11.4,0.6c5.9,0.9,9,2,10.5,2.7c0.4-3.9,2.4-16.1,14.1-28.4
		c13.7-14.3,62.2-49.2,62.7-49.6c0.2-0.1,5.2-4.5,13.1-5.2l0.1,0.8l-0.1-0.8c3-0.3,5.2-0.3,7.2-0.3c3.1-0.1,5.3-0.1,8.1-1
		c0.7-0.2,1.9-0.7,3.6-1.3l0.2-0.1c-6.6-5.7-15.6-14.8-22.3-26.7c-7-12.3-12.1-17.7-15.2-20.9c-2.5-2.5-3.8-3.9-3.3-6.4l0.8-4
		c-2.5-0.7-11.4-2.8-18.4-1.1c-7.6,13.4-18.6,33.2-18.6,33.2l-22.9,37.7c-0.1,0.3-17.5,33.9-23.2,42.7c-4.9,7.5-12.2,18.5-20.5,28.4
		C313.6,595.2,318.2,595,322.7,595z M418.4,450.8l-1-1.8c0,0,0,0,0,0c0,0-1.3-1.4-8.4-2.1c-3.1-0.3-6.9,0-11.1,1.1l-1.8,0.4l0.9-1.6
		c1.6-2.9,2.8-5,3.4-5.9c2.6-4.4,7.8-16.4,8-17l10.9-30.7l0.7,0.2c0.1,0,6.1,1.3,13.1,1.2c3.9-0.1,7.4-1,10.3-1.9l2.5-0.8l-1.6,2
		c-18.7,23.3-25.3,54.5-25.4,54.8L418.4,450.8z M406.7,445.2c0.9,0,1.7,0,2.5,0.1c4.8,0.5,7.2,1.3,8.4,2c1.4-5.8,8.2-31.7,23.9-52.4
		c-2.5,0.7-5.3,1.3-8.4,1.3c-5.9,0.1-11-0.8-12.8-1.1l-10.4,29.4c-0.2,0.5-5.4,12.6-8.1,17.2c-0.4,0.7-1.3,2.2-2.5,4.3
		C401.9,445.4,404.4,445.2,406.7,445.2z"/>
	<path class="st1" d="M460.1,511.8l18.4-5.4c9.3-2.4,8.9-5.3,18.4,0.1c5.6,2.8,11.3,6.1,17.3,7.7c1.6,0.2,3.4,0.9,4.6,2.3
		c2.3,2.5,2.1,6.3,3,9.2c5.3,9.7,20.2,8.4,29.7,10.4c7.4,1.1,12.2,4,14.5,11.5c0.9,3,1.3,6.3,4.8,7.2c2.9,1.1,6.2,1.4,9.3,1.8
		c3,0.5,7,0.5,8.4,3.7c-1.6-3-5.5-2.9-8.5-3.3c-4.4-0.7-10.9-0.1-13.4-4.5c-3.1-9.4-4.8-13.5-15.4-15.1c-10-1.9-25.5-0.6-30.9-11.2
		c-1-3.1-0.5-6.3-2.6-8.8c-2-2.2-5.9-2-8.4-3.4c-4.4-1.9-8.7-4.1-12.9-6.4c-2.7-1.4-5.5-3.4-8.6-3.1c-2.9,0.7-6,2.2-9.1,2.8
		C478.7,507.2,460.1,511.8,460.1,511.8L460.1,511.8z"/>
	<path class="st1" d="M448.1,391.7c4.1-3.3,8.9-5.8,14.1-6.8c8.6-1,17.6,0.1,25.9-2.6c8.7-2.3,14.2-9.6,21.6-14.2
		c7.7-4.3,17.2-3.3,25-7.5c4.8-2.1,8.6-6.3,13.6-8c1.8-0.6,3.6-0.5,5-1.2c1.4-0.6,2.7-1.8,3.8-3.1c2.1-2.3,4.7-5.9,7.4-7.6
		c4.6-2.7,9.9-3.6,14.4-6.4c3.1-1.6,6-3.5,8.9-5.5c2.8-2,5.7-4.1,8-6.7c-2.2,2.8-5,4.9-7.7,7.1c-5.6,4.2-11.7,7.9-18.4,10.2
		c-3.3,1.2-6.1,2.9-8.3,5.8c-2.2,2.4-4.5,6.1-7.6,7.5c-1.8,0.8-3.6,0.7-5.2,1.2c-4.9,1.8-8.5,5.8-13.4,8c-3.2,1.6-6.6,2.7-10.1,3.5
		c-3.5,0.8-7,1.1-10.2,2c-10.1,3-16.1,13.7-26.7,16c-6.9,1.9-14,1.8-21,1.8C460.5,384.8,453.7,387.6,448.1,391.7L448.1,391.7z"/>
	<path class="st1" d="M420.8,383.8c25.2-37.7,50.9-76.2,76.6-113.6c29.3-40.8,57.8-82.2,83.8-125.2c7-11.8,14-23.6,19.4-36.2
		c3.7-8.4,7.7-16.6,11.9-24.7c12.6-24.4,26-48.3,39.7-72c-13.6,23.8-27,47.7-39.5,72.1c-4.1,8.1-8.2,16.3-11.8,24.7
		c-5.4,12.6-12.4,24.5-19.3,36.3c-25.8,43.1-54.2,84.6-83.4,125.5c-25.5,37.5-51.1,76.1-76.1,113.9
		C422.1,384.7,420.8,383.8,420.8,383.8L420.8,383.8z"/>
	<path class="st1" d="M363.7,435.1c-16.3-27.5-32.2-55.4-44.1-85.2c-2.1-5.5-3.8-11.3-5.3-17c-9.5-36.7-15.4-74.2-21-111.7
		c5.9,37.4,12.1,74.9,21.8,111.5c1.6,5.7,3.3,11.4,5.4,16.9c12,29.6,28.1,57.4,44.5,84.7C365,434.3,363.7,435.1,363.7,435.1
		L363.7,435.1z"/>
	<path class="st1" d="M426.2,449c63.1-10.2,127.1-14.7,191-15.9c55.3-0.5,113.9,0.5,169.1-1.5c-55.2,2.3-113.8,1.6-169.1,2.3
		c-33.8,0.7-67.6,2.4-101.3,5.5c-29.9,2.7-59.8,6.2-89.4,11.2L426.2,449L426.2,449z"/>
	<path class="st1" d="M354.3,600.4c82.4,9.6,203.8,22.3,285,32.9c-80.8-10.1-203.1-22.3-285.2-31.4
		C354.1,602,354.3,600.4,354.3,600.4L354.3,600.4z"/>
	<path class="st1" d="M330,628.7c15,20.2,29.7,40.6,45.5,60.2c9.9,11.4,18,24.3,26.3,36.9c5.5,8.5,10.8,17,15.8,25.8
		c15.8,25.8,32.8,50.7,49.5,75.9c-16.9-25.1-34.1-49.9-50-75.6c-10.3-17.3-21.2-34.2-33.1-50.5c-19-23.5-37.5-47.4-55.4-71.7
		C328.7,629.6,330,628.7,330,628.7L330,628.7z"/>
	<path class="st1" d="M190.8,617.6c-40.4-20.9-80.6-42.3-119.2-66.4c-12.6-8.3-26-16.1-36-27.5c10.2,11.3,23.6,19,36.3,27.2
		c25.8,15.9,52.4,30.4,79.2,44.6c13.4,7.1,26.9,14,40.4,20.8C191.5,616.2,190.8,617.6,190.8,617.6L190.8,617.6z"/>
	<path class="st1" d="M225,569.1c-9-46.4-12.1-93.6-16.3-140.6c-5-45-10.2-97-36.3-135.2c26.2,38.1,31.8,90.1,37,135.1
		c3.4,35.2,6.1,70.5,11.2,105.5c1.7,11.7,3.5,23.3,5.9,34.8C226.5,568.8,225,569.1,225,569.1L225,569.1z"/>
	<path class="st1" d="M421.2,383.5c23.4-7.9,48.1-11.4,72.6-13.7c-18.3,2-36.7,5-54.4,9.7c-5.9,1.6-11.9,3.3-17.5,5.4
		C421.8,385,421.2,383.5,421.2,383.5L421.2,383.5z"/>
	<path class="st1" d="M435.6,362c19.3-4.4,38.8-8.2,58.6-10.3c19.7-1.7,39.5-3.4,59-6.7c-29.2,5.5-59.1,6.2-88.2,12.2
		c-9.7,1.9-19.4,4-29,6.3L435.6,362L435.6,362z"/>
	<path class="st1" d="M454.1,334.1c38.8-11.1,96.7-13.9,137.1-18.3c-24.2,2.8-79.8,7.8-103,12.2c-11.3,2-22.6,4.3-33.6,7.6
		L454.1,334.1L454.1,334.1z"/>
	<path class="st1" d="M480.2,295.2c24.7-10.3,50.7-17.6,77.4-19.9c6.7-0.6,13.4-0.6,20-0.5c20,0.2,40,0.3,60-1.2
		c-19.9,1.7-40,1.8-60,1.8c-6.7-0.1-13.3,0-20,0.7c-26.5,2.6-52.4,10.1-76.8,20.5C480.8,296.7,480.2,295.2,480.2,295.2L480.2,295.2z
		"/>
	<path class="st1" d="M413,385.2c-6.1-27.2-12.2-54.5-20.2-81.2c4.3,13.3,7.9,26.8,11.5,40.2c3.5,13.5,6.9,27,10.2,40.6
		C414.5,384.8,413,385.2,413,385.2L413,385.2z"/>
	<path class="st1" d="M425.5,377.1c-3.9-21.7-8.2-43.6-16.2-64.2c-7.7-20.8-12.9-42.4-17.9-64c3.9,16.1,8.1,32.2,13.1,48
		c1.7,5.3,3.5,10.5,5.5,15.6c4.2,10.3,7.3,21,10,31.7c2.7,10.8,5,21.6,7,32.5C427.1,376.8,425.5,377.1,425.5,377.1L425.5,377.1z"/>
	<path class="st1" d="M437.6,358.9c-2.3-20.7-5.3-41.5-12.4-61.2c-0.9-3-2.4-9.1-3.2-12.2c-5.6-24.5-9.8-49.3-13-74.2
		c-1.9-16.5-4.2-33.4-2.9-50c-0.8,8.3-0.1,16.7,0.5,25.1c0.7,8.1,1.7,16.9,2.8,24.9c5,33,9.9,66.4,20.7,98c4.5,16.2,7,32.8,9,49.5
		C439.1,358.8,437.6,358.9,437.6,358.9L437.6,358.9z"/>
	<path class="st1" d="M456,330.3c-2.7-34.5-5.8-69.4-14.9-102.9c-8-33.8-13.1-68.4-14.4-103.1c1.6,34.7,6.9,69.2,15.2,102.9
		c4.9,16.7,7.8,33.9,10.2,51.1c2.3,17.2,4.2,34.5,5.5,51.9C457.6,330.2,456,330.3,456,330.3L456,330.3z"/>
	<path class="st1" d="M479.3,287.4c-4-38.7-7.9-77.5-13.4-116c-5.2-29.9-5.5-60.4-5.4-90.6c0.1,25.9,0.6,52,4,77.7
		c4.3,25.6,7.4,51.4,10.5,77.2c2,17.2,4,34.4,5.9,51.6L479.3,287.4L479.3,287.4z"/>
	<path class="st1" d="M506,257.6c-2.8-37.7-5.3-75.6-10.4-113.1c-0.6-4.1-1.3-8.3-2.3-12.4c-2.9-7.9-4.4-16.3-5.2-24.7
		c-1.6-16.8-2-33.6-1-50.4c-0.9,16.8-0.4,33.7,1.3,50.4c1,8.4,2.5,16.6,5.4,24.5c1.1,4.1,1.8,8.3,2.5,12.4c3.1,20.8,5,41.8,7,62.7
		c1.5,16.8,2.9,33.5,4.2,50.3L506,257.6L506,257.6z"/>
	<path class="st1" d="M538.7,209.9c-2.1-16.7-15-92.6-13.9-108c-0.4-21.8-0.5-43.6,0.2-65.3c-0.5,14.5-0.2,29-0.1,43.6
		c0.3,14.5,0.2,29.1,1.8,43.5c0,0,13.4,86.1,13.4,86.1L538.7,209.9L538.7,209.9z"/>
	<path class="st1" d="M561.3,172.2c0.4-24.5,0.7-49.1,0.4-73.6c-0.7-24.5-1.2-49.1,0.1-73.6c-1,24.5-0.2,49.1,0.7,73.6
		c0.5,24.5,0.5,49.1,0.3,73.6C562.9,172.2,561.3,172.2,561.3,172.2L561.3,172.2z"/>
	<path class="st1" d="M588,124.8c1.2-8.8,1.6-17.8,1.2-26.7c-0.3-7.7-1.8-18.9-2.5-26.7c-0.9-8.9-1.7-17.8-2.3-26.8
		c-0.4-8.4-1.2-16.8-0.2-25.2c0,0,0.4-1.6,0.4-1.6s-0.4,1.6-0.4,1.6c-1,8.3,0,16.8,0.5,25.1c1,12.9,2.7,27.1,4.2,40.1
		c1.9,13.4,2.2,26.9,0.5,40.4C589.5,125,588,124.8,588,124.8L588,124.8z"/>
	<path class="st1" d="M608.9,88.5c-0.8-12.1-1.7-24.2-3-36.3c-1.8-12-2-24.3,0-36.3c-1.7,11.9-1.2,24.4,0.8,36.2
		c1.5,12.1,2.7,24.1,3.7,36.3C610.5,88.4,608.9,88.5,608.9,88.5L608.9,88.5z"/>
	<path class="st1" d="M626.8,50.8l-0.2-18.9c-0.1-6.2-0.3-12.7,1.3-18.8c-1,4.6-1,9.4-0.7,14.1c0.2,3,1,20.1,1.2,23.5
		C628.3,50.7,626.8,50.8,626.8,50.8L626.8,50.8z"/>
	<path class="st1" d="M637.7,32.6c1.3-7.4,3-18.2,4.7-25.4c-0.7,3.7-1.3,9-1.8,12.8c0,0-1.4,12.8-1.4,12.8L637.7,32.6L637.7,32.6z"
		/>
	<path class="st1" d="M636.3,39c9-1.6,18.3-3.1,26.7-6.9c-8.2,4.4-17.4,6.3-26.4,8.5C636.6,40.5,636.3,39,636.3,39L636.3,39z"/>
	<polygon class="st1" points="648,25.4 658.6,22.6 648.5,26.8 648,25.4 	"/>
	<path class="st1" d="M622.4,67.6c14.7-2.7,29.8-5.9,43-13.3c-9.6,6.1-20.7,9.4-31.6,12.3c-3.7,0.9-7.4,1.8-11.1,2.6L622.4,67.6
		L622.4,67.6z"/>
	<path class="st1" d="M609.1,96.2c10.7-2.5,21.4-5.2,32.1-8c10.6-3,21.4-5.5,31.4-10c-9.9,4.8-20.7,7.5-31.2,10.7
		c-10.6,3.1-21.2,6-31.9,8.8C609.5,97.7,609.1,96.2,609.1,96.2L609.1,96.2z"/>
	<path class="st1" d="M636.6,123.4c14.4-3.4,29.3-6,42.9-12.1c-13.4,6.5-28.2,9.7-42.5,13.6C636.9,124.9,636.6,123.4,636.6,123.4
		L636.6,123.4z"/>
	<path class="st1" d="M587.6,133.4c11.8-1.8,23.6-3.8,35.4-6.1c-11.6,2.8-23.3,5.3-35.1,7.7L587.6,133.4L587.6,133.4z"/>
	<path class="st1" d="M564.7,175.7c28.9-4.6,57.8-9.6,86.3-16.5c9.4-2.4,19-4.7,27.9-8.9c-17.8,8.1-37.3,11.5-56.3,15.9
		c-19.1,4-38.3,7.7-57.6,11L564.7,175.7L564.7,175.7z"/>
	<path class="st1" d="M533.7,218.4c36.4-4.4,72.8-9.3,108.9-16.3c11.8-2.5,24.2-5.1,35.5-9.3c-23,8.4-47.5,12.1-71.5,16.5
		c-24.2,4-48.4,7.6-72.7,10.7C533.8,220,533.7,218.4,533.7,218.4L533.7,218.4z"/>
	<path class="st1" d="M506.6,256.8c19.5-4.2,38.9-8.4,58.6-11.6c29.6-4,59.7-3.3,89.3-7.4c3.3-0.5,6.5-1.2,9.7-2.2
		c-3.1,1.1-6.4,1.8-9.7,2.3c-29.5,4.4-59.6,4-89.1,8.3c-19.6,3.4-39,7.8-58.4,12.2C507,258.3,506.6,256.8,506.6,256.8L506.6,256.8z"
		/>
	<path class="st1" d="M424,443.9c15.4-17.6,31.2-34.8,45.3-53.4c-13.7,18.9-29.1,36.5-44.1,54.4C425.1,445,424,443.9,424,443.9
		L424,443.9z"/>
	<path class="st1" d="M444.4,438.2c12-14,24.4-27.7,34.7-43c-9.9,15.6-22,29.7-33.6,44C445.6,439.2,444.4,438.2,444.4,438.2
		L444.4,438.2z"/>
	<path class="st1" d="M477.7,429.9c19.5-20.7,39.5-41.1,56.6-63.8c1.2-1.5,2.1-3.2,3.1-4.8c-1,1.6-1.9,3.3-3,4.8
		c-7.6,10.9-16.4,20.9-25.1,31c-10,11.4-20.2,22.7-30.5,33.8C478.8,431,477.7,429.9,477.7,429.9L477.7,429.9z"/>
	<path class="st1" d="M494.7,440.1c34.9-36.9,71-73,102.9-112.6c0,0,2.8-4,2.8-4l-2.8,4.1c-14.9,19.6-31.8,37.6-48.2,55.9
		c-17.7,19.4-35.6,38.6-53.6,57.7L494.7,440.1L494.7,440.1z"/>
	<path class="st1" d="M520.1,437.7c28.5-25.2,56.9-50.6,83.9-77.5c6.7-6.8,13.4-13.6,19.4-20.9c2-2.5,4-5,5.4-7.8
		c-1.4,2.9-3.4,5.4-5.3,7.9c-14.2,17.1-30.4,32.4-46.4,47.9c-18.4,17.5-37.1,34.7-56,51.7C521.1,438.9,520.1,437.7,520.1,437.7
		L520.1,437.7z"/>
	<path class="st1" d="M547.4,435.7c36.1-28.8,73-56.8,106.8-88.4c2.2-2.2,4.4-4.4,6.1-6.9c-1.7,2.6-3.9,4.8-6.1,7
		c-15.4,15.2-32.1,28.9-48.5,42.8c-18.9,15.8-38.1,31.4-57.3,46.7L547.4,435.7L547.4,435.7z"/>
	<path class="st1" d="M583.6,433.8c32.6-26.2,65.7-51.9,96.5-80.2c2.1-1.9,4-3.9,5.9-6c-1.9,2-3.8,4.1-5.8,6
		c-14.1,13.5-29.1,26.1-44,38.7c-17.1,14.4-34.3,28.6-51.6,42.6C584.6,435,583.6,433.8,583.6,433.8L583.6,433.8z"/>
	<path class="st1" d="M622.5,432.8c22.4-19.2,44.9-38.3,67.6-57c6.7-5.4,16.1-13.4,23.2-18.3c-15.5,11.6-30.6,25.2-45.3,37.7
		c-14.9,12.8-29.7,25.8-44.5,38.7C623.6,434,622.5,432.8,622.5,432.8L622.5,432.8z"/>
	<path class="st1" d="M663.7,432.7c19.5-15.4,47.7-38.8,67.6-53.1c-19.6,14.6-47.5,38.6-66.6,54.3
		C664.7,433.9,663.7,432.7,663.7,432.7L663.7,432.7z"/>
	<path class="st1" d="M698.6,432.5c7.4-5.4,15-10.7,22.6-15.7c7.7-4.9,15.5-10,24.1-13.3c-8.5,3.5-16.1,8.8-23.7,13.9
		c-7.5,5.2-14.9,10.7-22.1,16.3L698.6,432.5L698.6,432.5z"/>
	<path class="st1" d="M730.6,432.3c9.2-8,19-16.3,30.9-19.8c-11.7,3.9-21.1,12.6-29.8,20.9C731.6,433.4,730.6,432.3,730.6,432.3
		L730.6,432.3z"/>
	<polygon class="st1" points="759.8,428.4 775.1,420.1 760.5,429.7 759.8,428.4 	"/>
	<path class="st1" d="M744.3,432c8.9,5.1,18,10,26.2,16.2c-8.5-5.8-17.8-10.2-27-14.8C743.6,433.4,744.3,432,744.3,432L744.3,432z"
		/>
	<path class="st1" d="M711.2,432.4c14.7,9.9,30.8,17.8,47.4,24.1c-16.9-5.8-33.2-13.3-48.3-22.8
		C710.3,433.7,711.2,432.4,711.2,432.4L711.2,432.4z"/>
	<path class="st1" d="M673.9,432.6c22.1,13.5,44.1,27,67.1,38.8c-23.2-11.4-45.6-24.5-68-37.5C673.1,433.9,673.9,432.6,673.9,432.6
		L673.9,432.6z"/>
	<path class="st1" d="M637,432.6c24.4,15.9,49.4,31.2,72.4,49.2c-23.3-17.6-48.5-32.4-73.2-47.9C636.2,434,637,432.6,637,432.6
		L637,432.6z"/>
	<path class="st1" d="M605.1,433.2c21.4,20.2,43.1,40,65.9,58.7c7.6,6.2,15.4,12.2,23.7,17.4c-16.7-10.3-31.6-23.3-46.7-35.8
		c-14.9-12.8-29.6-25.8-44-39.1C604.1,434.3,605.1,433.2,605.1,433.2L605.1,433.2z"/>
	<path class="st1" d="M568.9,436.6c24,23.6,48.3,46.8,74.1,68.5c8.6,7.2,17.4,14.2,26.8,20.3c-18.9-12.1-35.8-27.1-52.7-41.8
		c-16.8-14.9-33.2-30.2-49.3-45.8L568.9,436.6L568.9,436.6z"/>
	<path class="st1" d="M526.9,439.4c35.1,33.4,69.8,67.5,107.7,97.7c2.5,2,5.3,3.8,7.9,5.6c-2.7-1.8-5.4-3.5-8-5.5
		c-18.1-13.6-34.9-28.9-51.8-43.9c-19.2-17.3-38.2-34.9-57-52.7C525.8,440.5,526.9,439.4,526.9,439.4L526.9,439.4z"/>
	<path class="st1" d="M490.7,440.7c27.7,29.8,55.8,59.3,85.3,87.2c9.8,9.1,20.1,18.5,31.2,26.1c-22.2-15.5-41.4-35.2-60.8-53.9
		c-19.3-19.1-38.2-38.5-56.8-58.3L490.7,440.7L490.7,440.7z"/>
	<path class="st1" d="M465.3,445.7c12.6,13.7,25.3,27.3,37.3,41.6c9.8,12.5,19,27,29.2,39.2c1.5,1.7,3,3.6,4.9,4.9
		c-1.9-1.3-3.4-3.2-5-4.9c-10.4-12-19.7-26.4-29.7-38.8c-12.2-14.1-25.1-27.5-37.9-41C464.2,446.8,465.3,445.7,465.3,445.7
		L465.3,445.7z"/>
	<path class="st1" d="M433.8,448c7.9,8.5,15.4,17.3,22.5,26.4c6.9,9.2,13.7,18.7,18.1,29.5c-7-15.9-18.6-29.2-29.8-42.2
		c-3.8-4.3-7.8-8.5-11.8-12.6C432.7,449.1,433.8,448,433.8,448L433.8,448z"/>
	<path class="st1" d="M421.1,454.6c11.2,17,22.2,34.4,36.5,49c-14.7-14.2-26.2-31.4-37.8-48.1C419.8,455.4,421.1,454.6,421.1,454.6
		L421.1,454.6z"/>
	<path class="st1" d="M359.9,438.6c-6.2,1.1-12.4,2.3-18.7,2.9c6.2-1.1,12.3-2.8,18.3-4.4C359.5,437.1,359.9,438.6,359.9,438.6
		L359.9,438.6z"/>
	<path class="st1" d="M319.8,443.4c-7.7-0.2-15.6,0.2-23.2-1.6c7.6,1.3,15.4,0.3,23.1,0C319.8,441.9,319.8,443.4,319.8,443.4
		L319.8,443.4z"/>
	<path class="st1" d="M356.5,430.7c-1.8-0.3-5.5-0.1-7.5-0.1c-19.3,0-37.9-5.9-56.3-10.9c19.7,4.9,39.8,10.6,60.4,9.4
		c1.5,0.1,3.3-0.5,4.6,0.7C357.8,429.7,356.5,430.7,356.5,430.7L356.5,430.7z"/>
	<path class="st1" d="M329.5,408.8c-11.9-1.3-24-2.1-35.3-6c11.5,3.3,23.6,3.6,35.4,4.4C329.6,407.3,329.5,408.8,329.5,408.8
		L329.5,408.8z"/>
	<path class="st1" d="M334.7,390.7c-10.7-2.2-21.4-4.6-32-7.1c-10.5-2.7-21.4-5-31.3-9.6c10,4.3,20.9,6.3,31.4,8.8
		c10.7,2.3,21.4,4.4,32.1,6.4C335,389.2,334.7,390.7,334.7,390.7L334.7,390.7z"/>
	<path class="st1" d="M326.6,366.3c-22.4-8.6-45.1-16.7-66.5-27.6c21.6,10.4,44.4,18,67,26.1C327.1,364.8,326.6,366.3,326.6,366.3
		L326.6,366.3z"/>
	<path class="st1" d="M311.4,341.2c-16.3-7.8-32.6-15.7-48.2-24.9c-5-3.2-10.6-6.1-14.3-10.9c0.8,1.3,2,2.2,3.2,3.2
		c8.4,6.4,18,11,27.3,15.8c10.8,5.4,21.7,10.5,32.7,15.4C312.1,339.8,311.4,341.2,311.4,341.2L311.4,341.2z"/>
	<path class="st1" d="M304.7,314.2c-8.8-4.3-17.4-8.8-25.9-13.6c-4.2-2.4-8.5-4.9-12.5-7.5c-4-2.7-8.4-5.3-11.2-9.3
		c1.4,2,3.4,3.5,5.3,5c14,9.7,29.7,16.8,45,24.1C305.4,312.8,304.7,314.2,304.7,314.2L304.7,314.2z"/>
	<path class="st1" d="M299.9,292.1c-8.7-4.8-35.7-18.9-36.7-29c0.1,2,1.3,3.7,2.6,5.2c9.6,10,22.6,16.1,34.8,22.3
		C300.6,290.7,299.9,292.1,299.9,292.1L299.9,292.1z"/>
	<path class="st1" d="M296.6,264.6c-6.9-4.2-13.7-8.4-20.1-13.3c-2-1.7-4.5-3.2-5.5-5.7c0.2,0.7,0.6,1.2,1.1,1.7
		c7.4,6.7,16.6,11.1,25.2,16C297.4,263.2,296.6,264.6,296.6,264.6L296.6,264.6z"/>
	<path class="st1" d="M295.2,244.4c-4.6-2.9-9.8-5.8-12.4-10.7c3,4.5,8.4,6.9,13.1,9.3C295.9,243,295.2,244.4,295.2,244.4
		L295.2,244.4z"/>
	<path class="st1" d="M366.8,423.4c6.2-15.6,12.9-31.1,17.8-47.2c-4.4,16.3-10.6,32-16.3,47.8C368.2,423.9,366.8,423.4,366.8,423.4
		L366.8,423.4z"/>
	<path class="st1" d="M358.7,414.4c6.5-28.8,13.9-59,19.3-88.2c-1.9,12.9-5.9,31.4-8.5,44.3c-3,14.7-6.1,29.5-9.3,44.2
		C360.3,414.8,358.7,414.4,358.7,414.4L358.7,414.4z"/>
	<path class="st1" d="M348.9,396.8c6.1-28.7,15.9-70.8,21-99.3c-2.2,14.5-6.6,35.3-9.4,49.9c0,0-10.1,49.7-10.1,49.7L348.9,396.8
		L348.9,396.8z"/>
	<path class="st1" d="M334.3,373.1c8.2-28.2,21.3-69.6,28.4-97.6c-0.8,4.2-2,8.2-3,12.4c-5.9,22.2-17.5,63.2-23.9,85.7
		C335.8,373.6,334.3,373.1,334.3,373.1L334.3,373.1z"/>
	<path class="st1" d="M323.5,343.9c8.5-25.8,18.1-52.7,25.4-78.8c-2.7,11.6-8.1,28.2-11.5,39.8c-4.1,13.2-8.2,26.4-12.4,39.5
		C325,344.4,323.5,343.9,323.5,343.9L323.5,343.9z"/>
	<path class="st1" d="M311.8,315.4c7.1-18.3,17.2-45.4,24.9-63.2c-7.2,17.9-16.7,45.4-23.4,63.7
		C313.3,315.9,311.8,315.4,311.8,315.4L311.8,315.4z"/>
	<polygon class="st1" points="307.6,288 329.1,241.8 309,288.7 307.6,288 	"/>
	<path class="st1" d="M304.7,265.9c4.5-9,9-18.1,13.2-27.3c1.3-3.1,2.9-6.1,3.7-9.4c-0.2,1.7-0.9,3.2-1.5,4.8
		c-4.3,11-9.2,21.8-14,32.6C306.2,266.6,304.7,265.9,304.7,265.9L304.7,265.9z"/>
	<path class="st1" d="M301,253.8c3.3-6,6.6-12,9.4-18.3c0.8-2.1,1.9-4.2,2-6.5c0.1,1.2-0.3,2.3-0.6,3.4c-2.4,7.7-6,14.9-9.4,22.1
		C302.4,254.6,301,253.8,301,253.8L301,253.8z"/>
	<path class="st1" d="M300.4,240.8c2.1-4.3,4.6-8.9,4.7-13.8c0.4,5-1.6,9.8-3.3,14.5C301.8,241.4,300.4,240.8,300.4,240.8
		L300.4,240.8z"/>
	<path class="st1" d="M229.3,565.6c11.8-13,23.9-25.8,33.7-40.4c-9.3,14.9-21.1,28.1-32.5,41.4C230.5,566.6,229.3,565.6,229.3,565.6
		L229.3,565.6z"/>
	<path class="st1" d="M225.7,552.7c9.2-11.8,18.7-23.3,28.6-34.6c10-11.1,19.9-22.5,32.1-31.3c-12,8.9-21.7,20.5-31.5,31.8
		c-9.7,11.4-19,23.1-27.9,35C227,553.6,225.7,552.7,225.7,552.7L225.7,552.7z"/>
	<path class="st1" d="M222.2,533c16.2-21.1,32.7-41.9,50.3-61.9c5.9-6.6,11.9-13.2,18.7-18.8c-6.8,5.7-12.6,12.4-18.5,19.1
		c-17.3,20.2-33.4,41.3-49.3,62.6C223.4,533.9,222.2,533,222.2,533L222.2,533z"/>
	<path class="st1" d="M219.8,509.4c16.4-22.8,32.8-45.6,48.8-68.7c5.2-7.8,10.8-15.3,15.3-23.5c-9.1,16.3-20.4,31.4-30.8,47
		c-10.6,15.4-21.3,30.8-32.1,46.1L219.8,509.4L219.8,509.4z"/>
	<path class="st1" d="M217.9,475.3c14.3-20.4,28.5-40.8,41.9-61.9c3.9-6.1,7.7-12.3,11-18.8c0,0,1.2-2.9,1.2-2.9l-1.1,2.9
		c-6.9,14-15.6,26.9-24,40.1c-9,13.9-18.3,27.7-27.6,41.5L217.9,475.3L217.9,475.3z"/>
	<path class="st1" d="M214,445c15.3-22.4,31.2-44.5,44.3-68.3c0.8-1.6,1.6-3.2,2.1-5c-0.4,1.8-1.2,3.4-2,5.1
		c-12.6,24.1-28.2,46.5-43.1,69.2C215.3,445.9,214,445,214,445L214,445z"/>
	<path class="st1" d="M210.2,414.3c10.5-17.2,21-34.6,30.5-52.4c3.1-6,6.5-11.9,8.4-18.3c0,0-0.7,2.4-0.7,2.4
		c-4.5,11.8-10.9,22.8-16.9,34c-6.5,11.8-13.2,23.5-20,35.2L210.2,414.3L210.2,414.3z"/>
	<path class="st1" d="M205.4,384c8.2-13.5,16.1-27.1,23.5-41.1c2.5-4.6,5.3-9.1,6.4-14.4c-0.9,5.2-3.6,9.9-6,14.5
		c-2.5,4.6-4.7,9.4-7.2,14.1c-5,9.3-10.1,18.5-15.3,27.6C206.7,384.8,205.4,384,205.4,384L205.4,384z"/>
	<path class="st1" d="M201.2,354.8c4.1-6.2,8.1-12.6,11.9-19c3.6-6.5,8-12.9,9.5-20.2c-0.1,0.9-0.2,1.9-0.6,2.8
		c-4.7,13.3-12.5,25.3-19.6,37.4C202.5,355.6,201.2,354.8,201.2,354.8L201.2,354.8z"/>
	<path class="st1" d="M196,333.9c3.5-6.6,6.9-13.3,9.4-20.4c0.8-2.4,1.5-4.8,1.6-7.3c0,5-2,9.8-3.7,14.5c-1.8,4.7-3.8,9.3-5.9,13.8
		L196,333.9L196,333.9z"/>
	<path class="st1" d="M189.8,318.7c2.2-5,5.1-10.2,5.3-15.8c0.3,5.7-2.1,11.1-3.8,16.4C191.2,319.3,189.8,318.7,189.8,318.7
		L189.8,318.7z"/>
	<path class="st1" d="M221.5,572.5c-11-10-21.7-20.7-34.6-28.2c-0.9-0.5-1.8-0.8-2.7-1.1c1.9,0.6,3.7,1.4,5.4,2.5
		c11.9,7.3,22.4,16.6,33,25.8C222.6,571.4,221.5,572.5,221.5,572.5L221.5,572.5z"/>
	<path class="st1" d="M217.7,543.8c-8.7-6.4-17.5-12.6-26.5-18.6c-9-5.8-17.9-12.2-27.9-16.2c10.1,3.8,19.2,9.9,28.4,15.6
		c9.1,5.8,18.1,11.8,27,18C218.6,542.5,217.7,543.8,217.7,543.8L217.7,543.8z"/>
	<path class="st1" d="M214.2,517.4c-19-14-38-27.9-58-40.4c-3-1.9-6.3-3.8-9.4-5.4c-1.6-0.9-3.3-1.5-4.9-2.2c1.7,0.7,3.4,1.3,5,2.1
		c11.3,5.7,21.9,12.9,32.5,19.8c12.1,8.1,24,16.3,35.8,24.8C215.1,516.2,214.2,517.4,214.2,517.4L214.2,517.4z"/>
	<path class="st1" d="M210.3,480.5c-23.8-13.4-58.5-34-82.6-46.1c12.4,5.7,29.6,15.5,41.9,22c0,0,41.5,22.8,41.5,22.8L210.3,480.5
		L210.3,480.5z"/>
	<path class="st1" d="M207.1,451.3c-5.7-5.9-12.2-10.9-18.5-16c-5.8-4.4-11.5-8.9-18-12.1c-0.9-0.5-1.9-0.7-2.9-1c1,0.2,2,0.5,3,0.9
		c13,6.4,24.5,15.8,35.6,25.1c0.8,0.7,1.7,1.5,2.4,2.4C208.5,450.7,207.1,451.3,207.1,451.3L207.1,451.3z"/>
	<path class="st1" d="M154.3,414.4c-11.3-6.5-23.2-12.6-32.4-21.9c9.5,8.9,21.7,14.5,33.1,20.5C155,413,154.3,414.4,154.3,414.4
		L154.3,414.4z"/>
	<path class="st1" d="M204.6,422.6c-25.9-18.2-52.6-35.5-77-55.7c-0.8-0.7-1.4-1.5-2.1-2.2c0.7,0.7,1.4,1.5,2.2,2.2
		c24.7,19.8,51.6,36.7,77.8,54.5C205.4,421.3,204.6,422.6,204.6,422.6L204.6,422.6z"/>
	<path class="st1" d="M200.8,389.2c-15.9-12-39.4-29.4-54.8-41.5c15.6,11.7,39.7,28.7,55.7,40.2C201.7,388,200.8,389.2,200.8,389.2
		L200.8,389.2z"/>
	<path class="st1" d="M196.3,360.7c-7.4-4.2-14.8-8.4-22.1-12.6c-7.2-4.4-14.9-8.4-21.5-13.6c1.6,1.4,3.5,2.4,5.3,3.6
		c12.8,7.6,26,14.4,39.1,21.3C197,359.3,196.3,360.7,196.3,360.7L196.3,360.7z"/>
	<path class="st1" d="M190.3,341c-8.3-5.8-20.3-14.7-28.8-20c2.6,1.4,5,3,7.5,4.5c4.7,3,17.3,11.1,22.1,14.2
		C191.2,339.7,190.3,341,190.3,341L190.3,341z"/>
	<path class="st1" d="M183.4,322.1c-5.8-2.4-11.6-4.9-16.7-8.7c5.3,3.3,11.3,5.3,17.2,7.2C183.9,320.6,183.4,322.1,183.4,322.1
		L183.4,322.1z"/>
	<path class="st1" d="M190.4,613.7c-2.1-10.2-4.5-20.3-7.1-30.3c-2.8-10-5.3-20.2-10.3-29.3c5.2,9,7.9,19.2,11,29.1
		c2.9,10,5.5,20.1,7.9,30.2L190.4,613.7L190.4,613.7z"/>
	<path class="st1" d="M168.9,586.4c-4.5-14.8-8.4-30-15-44.2c7,13.9,11.4,29,16.5,43.7C170.4,586,168.9,586.4,168.9,586.4
		L168.9,586.4z"/>
	<path class="st1" d="M158.2,593.9c-6.7-16.4-16.9-40.5-23-56.9c6.5,16.2,17.3,40.1,24.5,56.3C159.7,593.3,158.2,593.9,158.2,593.9
		L158.2,593.9z"/>
	<path class="st1" d="M133.1,582.8c-6.8-16.9-13.4-33.9-21.6-50.2c8.7,16,15.7,32.9,23,49.6C134.6,582.2,133.1,582.8,133.1,582.8
		L133.1,582.8z"/>
	<path class="st1" d="M106.1,566.7c-7-12.9-13.8-26.1-22.7-37.9c9.3,11.5,16.6,24.4,24.1,37.2C107.5,565.9,106.1,566.7,106.1,566.7
		L106.1,566.7z"/>
	<path class="st1" d="M84.9,556.9c-3.7-9.2-7.6-18.4-12.3-27.1c5.2,8.5,9.5,17.5,13.7,26.5C86.3,556.3,84.9,556.9,84.9,556.9
		L84.9,556.9z"/>
	<path class="st1" d="M65.1,545.1c0.8-7.2-2-15.4-8-19.8c1.6,1,3.1,2.3,4.3,3.8c3.5,4.6,5.7,10.5,5.2,16.4
		C66.6,545.5,65.1,545.1,65.1,545.1L65.1,545.1z"/>
	<path class="st1" d="M192.4,623c-5,3.4-10.2,6.7-15.6,9.6c-5.3,2.8-10.8,5.9-16.9,6.6c6-0.9,11.3-4.2,16.5-7.2
		c5.2-3.2,10.2-6.6,15-10.2L192.4,623L192.4,623z"/>
	<path class="st1" d="M180.6,616.4c-16.6,8.2-32.9,17-50.3,23.5c17.1-7,33.2-16.2,49.5-24.9C179.8,615,180.6,616.4,180.6,616.4
		L180.6,616.4z"/>
	<path class="st1" d="M164.3,606.7c-22.3,6.2-44.9,11.5-66.6,19.3c21.6-8.2,44.1-14.1,66.2-20.8
		C163.9,605.2,164.3,606.7,164.3,606.7L164.3,606.7z"/>
	<path class="st1" d="M137.6,593.4c-11.1,2.8-22.2,5.4-33.5,7c-8.4,1-25.5,3-33.9,3.9c15.7-2.3,35.2-4.2,50.5-8.2
		c5.5-1.3,11-2.8,16.5-4.3L137.6,593.4L137.6,593.4z"/>
	<path class="st1" d="M109.1,576.3c-15.4,1.2-38.1,2.7-53.2,4.3c15-2.1,37.8-4.2,53.1-5.9C108.9,574.8,109.1,576.3,109.1,576.3
		L109.1,576.3z"/>
	<path class="st1" d="M75.4,558.2c-9.2,0.7-18.5,1.5-27.6,0.1c9.1,0.9,18.4-0.4,27.4-1.6C75.2,556.6,75.4,558.2,75.4,558.2
		L75.4,558.2z"/>
	<polygon class="st1" points="56.2,543.3 44,544.8 55.9,541.8 56.2,543.3 	"/>
	<path class="st1" d="M355.2,595c11.4-14,27.7-34.9,39.4-48.4c-11.3,13.7-27.2,35.1-38.2,49.4C356.5,595.9,355.2,595,355.2,595
		L355.2,595z"/>
	<path class="st1" d="M374.3,596.4c11.8-11.3,23.2-23.2,32.8-36.5c9.3-13.6,20-26.1,31.5-37.8c-5.7,5.9-11.1,12.1-16.3,18.5
		c-10.5,12.7-18.7,27.1-29.9,39.1c-5.5,6.2-11.1,12.1-17,17.9C375.3,597.5,374.3,596.4,374.3,596.4L374.3,596.4z"/>
	<path class="st1" d="M394,602c16.6-14.9,32.8-30.4,48-46.7c15.2-16.4,31.2-32,47.8-46.9c-16.4,15.2-32.3,30.9-47.2,47.5
		c-7.5,8.3-15.3,16.3-23.3,24.1c-8,7.9-16,15.6-24.3,23.1C395.1,603.1,394,602,394,602L394,602z"/>
	<path class="st1" d="M420,602.5c17.4-10.8,34.8-22.1,50.2-35.8c14.5-14.6,30.1-28.2,46.3-41c-12,9.8-23.7,19.9-34.8,30.6
		c-10.7,11.2-22.4,21.4-35.1,30.3c-8.4,6-17,11.7-25.7,17.2C420.9,603.8,420,602.5,420,602.5L420,602.5z"/>
	<path class="st1" d="M448.2,607.6c29.7-21.1,59.8-44.1,88.2-67c-28.1,23.3-57.9,46.7-87.3,68.2
		C449.1,608.9,448.2,607.6,448.2,607.6L448.2,607.6z"/>
	<polygon class="st1" points="477.4,611.3 544.8,567.9 478.2,612.6 477.4,611.3 	"/>
	<polygon class="st1" points="553.2,561.6 566.3,555.8 553.9,562.9 553.2,561.6 	"/>
	<path class="st1" d="M511.5,609c11.5-8.4,27.6-20.5,39.3-28.4c-11.3,8.2-27.1,20.9-38.3,29.6C512.4,610.2,511.5,609,511.5,609
		L511.5,609z"/>
	<path class="st1" d="M568.1,571.5c5.6-2.9,11.1-6.5,17.2-8c-5.9,2-11.1,6-16.4,9.3C568.9,572.9,568.1,571.5,568.1,571.5
		L568.1,571.5z"/>
	<path class="st1" d="M537.7,616.3c19.3-10.7,38.3-22.2,58.6-30.8c2.2-0.6,2.3-0.6,0,0c-20.1,9-38.8,21-57.8,32.1
		C538.5,617.7,537.7,616.3,537.7,616.3L537.7,616.3z"/>
	<path class="st1" d="M566.5,619.8c14.5-6.2,28.9-12.9,43.9-18c-14.8,5.6-28.9,12.8-43.2,19.4C567.1,621.2,566.5,619.8,566.5,619.8
		L566.5,619.8z"/>
	<polygon class="st1" points="604,622.7 624.3,616.8 604.5,624.2 604,622.7 	"/>
	<path class="st1" d="M595.6,630.4c6,6.8,11.7,14.4,19.5,19.3c-8.1-4.5-14.2-11.8-20.6-18.3C594.4,631.4,595.6,630.4,595.6,630.4
		L595.6,630.4z"/>
	<path class="st1" d="M575.1,626.8c7.9,10.3,15.6,21,25.4,29.6c-10.1-8.3-18.3-18.7-26.6-28.6C573.8,627.7,575.1,626.8,575.1,626.8
		L575.1,626.8z"/>
	<path class="st1" d="M554.1,625.4c3.1,6.4,5.8,13.5,10.9,18.6c-5.5-4.8-8.7-11.7-12.3-17.9C552.7,626.1,554.1,625.4,554.1,625.4
		L554.1,625.4z"/>
	<path class="st1" d="M577,653.3c5,4.8,10.1,9.6,14.6,14.9c-4.9-4.9-10.3-9.3-15.6-13.7C576,654.5,577,653.3,577,653.3L577,653.3z"
		/>
	<polygon class="st1" points="538.1,638.2 567.9,684.5 536.8,639 538.1,638.2 	"/>
	<path class="st1" d="M494.6,616.2c3.4,7.6,6.9,15.4,12.1,21.9c-5.7-6.2-9.6-13.8-13.5-21.2C493.2,616.8,494.6,616.2,494.6,616.2
		L494.6,616.2z"/>
	<path class="st1" d="M527.3,658.1c3,6.5,8.3,14.1,12.2,20.6c1.4,2.3,2.9,4.6,4,7.1c-1.2-2.4-2.9-4.7-4.4-6.9
		c-4.3-6.6-9.8-13.3-13.3-20.3c-0.1-0.3-0.1-0.6-0.1-0.9C525.8,657.7,527.3,658.1,527.3,658.1L527.3,658.1z"/>
	<path class="st1" d="M465.6,615.4c8,15.1,16.3,30,24.9,44.8c7.6,12.8,15,25.9,24.3,37.6c1.4,1.6,2.8,3.3,4.7,4.3
		c-1.9-1-3.4-2.6-4.8-4.2c-9.5-11.5-17.1-24.5-24.9-37.2c-8.8-14.6-17.3-29.5-25.6-44.4C464.3,616.1,465.6,615.4,465.6,615.4
		L465.6,615.4z"/>
	<path class="st1" d="M435.4,613.5c15.1,29.5,29.5,59.7,47.9,87.3c1.3,1.8,2.6,3.6,4.3,5c-1.7-1.4-3-3.2-4.4-5
		c-9.1-12.6-16.5-26.3-24.1-39.8c-8.6-15.5-16.9-31.2-25.1-46.9L435.4,613.5L435.4,613.5z"/>
	<path class="st1" d="M413.9,611.3c13.9,24.7,27.4,49.8,42.8,73.6c1,1.6,2.2,3.1,3.3,4.6c-1.2-1.5-2.4-3-3.4-4.5
		c-15.8-23.6-29.8-48.4-44.1-72.9C412.6,612,413.9,611.3,413.9,611.3L413.9,611.3z"/>
	<path class="st1" d="M394.4,611c6.2,11.2,15.8,27.4,21.2,38.8c-1.6-3.3-3.5-6.5-5.4-9.6c-3.5-6.1-13.4-22.1-17.1-28.3
		C393.1,611.8,394.4,611,394.4,611L394.4,611z"/>
	<polygon class="st1" points="372.9,605.9 384.6,628.5 371.5,606.7 372.9,605.9 	"/>
	<path class="st1" d="M358.1,605.8c1.2,3.5,2.4,7,4.4,10.2c-1.2-1.4-2.2-3-3.2-4.6c-1-1.6-1.8-3.3-2.7-5L358.1,605.8L358.1,605.8z"
		/>
	<path class="st1" d="M331.4,625.2c12.9-0.4,25.9-1.5,38.8-0.8c-12.9-0.1-25.8,1.4-38.7,2.4C331.5,626.8,331.4,625.2,331.4,625.2
		L331.4,625.2z"/>
	<path class="st1" d="M340.2,638.1c10-0.1,19.9-0.2,29.9,0c9.9,0.4,20,0,29.8,2.1c-1.2-0.3-2.4-0.5-3.7-0.6
		c-18.6-1.5-37.4-0.4-56,0.1C340.3,639.7,340.2,638.1,340.2,638.1L340.2,638.1z"/>
	<path class="st1" d="M355.2,659.1c24.3,1.3,48.7,1.7,72.8,4.6c-24.2-2.3-48.6-2.2-72.9-3C355.1,660.6,355.2,659.1,355.2,659.1
		L355.2,659.1z"/>
	<path class="st1" d="M370.5,683.1c1.5-0.2,3.1,0,4.6,0.1c10,1,20.1,2,29.9,4.1c-9.9-1.7-20-2.2-30-2.8c-1.1,0-2.9-0.1-4,0
		C370.9,684.6,370.5,683.1,370.5,683.1L370.5,683.1z"/>
	<path class="st1" d="M433.2,689.7c8.4,1.7,17.1,2.8,25.1,6c-8.2-2.6-16.9-3.3-25.3-4.4C433,691.3,433.2,689.7,433.2,689.7
		L433.2,689.7z"/>
	<path class="st1" d="M390,707.7c16.6,4.4,40,10.3,56.2,15.2c-16.2-4.5-40-9.7-56.6-13.7C389.6,709.3,390,707.7,390,707.7L390,707.7
		z"/>
	<path class="st1" d="M455.9,724.8c4.7,1.2,9.6,2.2,13.8,4.7c-1.1-0.6-2.2-0.9-3.4-1.3c-3.5-0.9-7.1-1.5-10.7-1.9
		C455.6,726.4,455.9,724.8,455.9,724.8L455.9,724.8z"/>
	<path class="st1" d="M415.7,741.7c9.5,2.3,18.9,4.8,28.2,7.5c7,2.1,14,4.2,20.7,7.1c2.2,1,4.6,1.9,6.2,3.7c-0.8-0.9-1.9-1.5-3-2
		c-16.7-7.2-34.9-10.6-52.5-14.7C415.4,743.3,415.7,741.7,415.7,741.7L415.7,741.7z"/>
	<path class="st1" d="M430.6,767.9c7.5,2.3,15,4.7,22.4,7.4c3.7,1.4,7.4,2.8,11,4.4c3.5,1.7,7.4,3.1,10,6.1
		c-1.3-1.5-3.1-2.4-4.8-3.3c-12.4-5.8-25.8-9.3-39-13C430.2,769.4,430.6,767.9,430.6,767.9L430.6,767.9z"/>
	<path class="st1" d="M446.8,792.2c7.7,3.1,15.8,6.3,21.9,12c-6.4-5.3-14.6-7.9-22.4-10.5C446.3,793.6,446.8,792.2,446.8,792.2
		L446.8,792.2z"/>
	<path class="st1" d="M326.9,628.6c-3.9,7.7-7.6,15.6-10.9,23.6c-3.2,8-6.6,16.2-7.6,24.9c0.7-8.7,3.9-17,6.8-25.1
		c3.1-8.1,6.5-16.1,10.3-24L326.9,628.6L326.9,628.6z"/>
	<path class="st1" d="M329.3,648.4c-7.7,19.3-16.2,38.5-21.3,58.6c-0.3,1.3-0.5,2.7-0.6,4.1c0.1-1.4,0.2-2.8,0.5-4.1
		c4.6-20.3,12.6-39.7,19.9-59.2C327.9,647.8,329.3,648.4,329.3,648.4L329.3,648.4z"/>
	<path class="st1" d="M347.8,656.9c-8.4,22.8-16.8,45.7-24.4,68.8c-2.4,7.7-5.1,15.4-6.4,23.4c0,0,0.5-3,0.5-3
		c3.4-14.8,8.4-29.3,13.1-43.7c5.1-15.4,10.4-30.7,15.8-46L347.8,656.9L347.8,656.9z"/>
	<path class="st1" d="M360.6,670.1c-1.8,3.7-3.2,7.6-4.1,11.7c0.4-4.2,1.3-8.3,2.7-12.3C359.1,669.5,360.6,670.1,360.6,670.1
		L360.6,670.1z"/>
	<path class="st1" d="M351.6,700.8c0.4,0.9,0.1,1.3,0,2.1c-0.2,1-0.9,3.4-1.2,4.4c-1.6,5.6-3.5,11.7-4.4,17.5
		c0.6-7.6,3-15.4,4.2-22.8c0-0.1,0-0.2,0-0.3c0-0.1-0.1-0.2,0.1,0.1L351.6,700.8L351.6,700.8z"/>
	<path class="st1" d="M340.9,745.8c-2.3,11.2-5,22.4-5.9,33.8c0.4-11.5,2.6-22.8,4.4-34.1C339.4,745.5,340.9,745.8,340.9,745.8
		L340.9,745.8z"/>
	<path class="st1" d="M374.3,687.6c-7,25.4-13.7,51-18.7,76.9c-1.4,8.6-3.5,17.4-2.5,26.2c-1.1-8.8,0.8-17.6,2.1-26.2
		c1.5-8.7,3.3-17.3,5.1-25.9c3.8-17.2,8-34.3,12.5-51.4L374.3,687.6L374.3,687.6z"/>
	<path class="st1" d="M393.8,713.3c-5,22.1-9.7,44.3-13,66.8c-0.9,7.5-2.3,15.1-1.3,22.6c-1.1-7.5,0.2-15.1,0.9-22.6
		c0.9-7.5,2.1-15,3.4-22.5c2.5-14.9,5.4-29.8,8.5-44.6L393.8,713.3L393.8,713.3z"/>
	<path class="st1" d="M409.9,738.2c-4.2,18.2-8.1,36.6-10.6,55.1c-0.6,4.6-1.1,9.3-1,14c-0.1,1.6,0.2,3.1,0.4,4.7
		c-0.2-1.5-0.6-3.1-0.5-4.6c-0.1-1.2-0.1-3.5,0-4.7c0.8-15.6,3.7-31,6.4-46.4c1.2-6.1,2.4-12.3,3.7-18.4L409.9,738.2L409.9,738.2z"
		/>
	<path class="st1" d="M421.1,756.5c-2.7,19.9-6.2,39.8-6.8,59.8c0,0,0.2,1.9,0.2,1.9l-0.2-1.9c0-20.1,3.1-40.1,5.3-60
		C419.6,756.3,421.1,756.5,421.1,756.5L421.1,756.5z"/>
	<path class="st1" d="M435.2,780.6c-2.1,6.4-3.9,13-5.3,19.7c-1.2,6.6-2.8,13.6-0.9,20.2c-2.2-6.5-0.8-13.7,0.1-20.3
		c1.2-6.7,2.7-13.4,4.6-20C433.7,780.1,435.2,780.6,435.2,780.6L435.2,780.6z"/>
	<path class="st1" d="M451.5,806c-1.5,6.2-3.3,13-1.4,19.3c-2.4-6.2-1.2-13.2-0.1-19.6C450,805.6,451.5,806,451.5,806L451.5,806z"/>
</g>
</svg>
